<?xml version="1.0" encoding="utf-8"?>
<!-- Generator: Adobe Illustrator 17.0.2, SVG Export Plug-In . SVG Version: 6.00 Build 0)  -->
<!DOCTYPE svg PUBLIC "-//W3C//DTD SVG 1.1//EN" "http://www.w3.org/Graphics/SVG/1.1/DTD/svg11.dtd">
<svg version="1.1" id="Etsy" xmlns="http://www.w3.org/2000/svg" xmlns:xlink="http://www.w3.org/1999/xlink" x="0px" y="0px"
	 width="336.247px" height="165.918px" viewBox="0 0 336.247 165.918" enable-background="new 0 0 336.247 165.918"
	 xml:space="preserve">
<path fill="#295A84" d="M3.084,5.084C3.008,3.336,3.667,1.917,6.001,1.917c2.333,0,26,0.75,41.917,0.75
	c33,0,40.917-2.667,46.583-2.667c3.167,0.083,3.833,2.5,3.833,3.917s-1.5,4.417-1.5,8.333c0,3.917,0.917,8.083,0.917,11.5
	s-2.917,4.583-4.5,4.583c-1.584,0-2.58-0.584-2.667-3.5c-0.166-5.583,3.917-13.666-36.167-13.666C34,11.167,33.5,13.5,33.5,20
	s0.167,28,0.167,31.333c0,3.334,1,4.333,3.667,4.333s23.583,0,29.25,0s11.417-3.083,12.083-11.083c0.25-4.25,1.416-4.417,3.5-4.417
	c2.083,0,4,1.667,3.667,5.667s-1.167,8.25-1.167,14s1.167,11.417,1.167,15.583c0,4.168-5.5,5.167-6.583,0.668
	C78.168,71.584,76.584,64,63.751,64s-23.167,0-26,0c-2.833,0-4.25,1.583-4.25,6.25s0,27.5,0,33.251
	c0,5.749,1.75,11.916,13.417,11.916s32.833,1.25,42.5-6.334c4.167-3.417,5.417-8.166,6.833-15.916c0.667-3.583,8.417-3.5,8.083,4.75
	c-0.25,3.834-3.924,12.065-3.924,17.347c0,4.418,1.01,10.329-3.076,10.329c-3.453,0-2-1.76-17.167-1.76s-67.5,0.334-76.25,0.334
	c-3.25,0-3.917-0.917-3.917-2.917c0-1.999,1.167-3.5,3.917-3.5s14.417,0.166,14.417-14.666c0-14.834,0-69.084,0-77.084
	S16.584,10,6.751,9C2.918,8.667,3.167,7,3.084,5.084z"/>
<path fill="#295A84" d="M110.084,51.722c0-2.5,1.334-3.556,4.333-4.556c5.667-2.166,12.167-8.5,17.667-23.5
	c1.75-4.75,7.75-3.5,7,1.333s-1.833,13.75-1.833,18.833c2.583,0,21.75,0,24.167,0s2.833,2.917,2.833,5.25s-0.667,4.25-2.75,4.25
	c-2.25,0-24.25,0-24.25,0s0,26.75,0,41.833c0,15.084,5.167,18.584,12.083,18.584c4,0,7.25-1.584,10.25-3.666
	c2-1.501,6.5,2.082,4.25,4.999s-10.167,11.5-21.5,11.5s-19.5-8.416-19.333-22.499c0.166-14.084,0.75-37.584,0.75-40.834
	s-4.25-7.833-9-7.833C110.834,55.334,110.084,53.278,110.084,51.722z"/>
<path fill="#295A84" d="M208.168,41.417c7.833,0,13.917,2.75,16.5,2.75s3.583-3.25,6.416-3.25c2.834,0,3.5,3.25,2.751,6
	c-0.751,2.75-1.25,9.25-0.918,16.5c0.084,2.5-1.916,4-3.916,4s-2.75-0.833-3.584-4.667c-0.832-3.833-4.249-13.083-17.749-13.083
	c-9.751,0-13.5,6.5-13.5,10.75s2.28,8.314,12.666,12.833c10.917,4.75,31.084,9.834,31.084,29.167
	c-0.667,18.167-18.667,23.917-29.25,23.917c-8.917,0-17.25-2.667-20.917-2.667s-5.083,3.083-7.417,3.083
	c-2.333,0-4-2.666-3.083-5.417c0.916-2.75,2.083-4.833,2.083-7.583s-1.583-9.167-0.667-14.5c0.918-5.333,8.084-6.083,8.001-0.916
	s2.25,19.916,20.917,19.916c15.083,0,16.833-10.5,16.833-13.5c0-3.667-0.751-8.917-18.834-16.083
	c-18.083-7.167-25.083-13.834-25.083-25.25C180.501,52.001,190.668,41.417,208.168,41.417z"/>
<path fill="#295A84" d="M243.168,46.25c0-1.75,0.083-2.583,2.083-2.583S257.835,44,263.417,44c5.584,0,15.835-0.333,17.917-0.333
	c1.501,0,1.084,1.833,1.084,3.084c0,1.25,0.166,3.333-2.5,3.333c-2.667,0-7.666,0.917-7.666,5.333s1.176,5.648,2.916,10.417
	c1.917,5.25,15.75,37,15.75,37s10.833-22.25,14.083-28.499c3.25-6.25,5.25-14.084,5.25-17.584s-3.583-5.833-6.584-6.417
	c-3-0.583-4.499-0.417-4.499-4c0-1.833,0.333-2.833,1.833-2.833s10.5,0.583,17.166,0.583c6.668,0,14.417-0.417,16.584-0.417
	c2,0,1.417,1.667,1.417,3.084c0,1.416-0.167,2.833-1.917,3.083s-9.499-0.083-17.583,17.083c-8.083,17.166-24.084,51.75-35.666,74.25
	c-6.001,11.833-17.334,24.75-29.167,24.75c-6.167,0.083-8.584-5.25-8.584-7.917s1.5-7,8.5-7c4.666,0,5.917,2.25,8.166,2.25
	c4.667,0,16.501-11.334,19.834-31.666c0.5-4.667-4.299-16.097-6.166-21.251c-2.778-7.666-11.223-29.888-17.334-43.083
	c-2.087-4.508-7.583-6.834-11.083-7.25C243.501,49.667,243.168,49.084,243.168,46.25z"/>
</svg>
