<?xml version="1.0" encoding="utf-8"?>
<!-- Generator: Adobe Illustrator 17.0.2, SVG Export Plug-In . SVG Version: 6.00 Build 0)  -->
<!DOCTYPE svg PUBLIC "-//W3C//DTD SVG 1.1//EN" "http://www.w3.org/Graphics/SVG/1.1/DTD/svg11.dtd">
<svg version="1.1" id="Layer_1" xmlns="http://www.w3.org/2000/svg" xmlns:xlink="http://www.w3.org/1999/xlink" x="0px" y="0px"
	 width="136.238px" height="164.013px" viewBox="0 0 136.238 164.013" enable-background="new 0 0 136.238 164.013"
	 xml:space="preserve">
<path fill="#295A84" d="M62.035,118.622c14.451,10.643,40.907,4.219,52.332-5.285c16.472-13.694,24.079-41.458,21.65-63.446
	C133.303,25.296,109.74,3.593,81.879,0.549C39.032-4.131,0.075,21.488-0.219,62.224c-0.143,19.186,6.203,31.262,23.457,37.899
	c11.791-11.425-2.198-18.839-3.613-31.724C15.906,34.202,57.55,1.279,94.514,22.573c25.752,14.833,21.383,78.474-9.922,84.597
	c-6.237,1.228-14.05-0.685-17.139-3.524c-14.877-13.614,12.315-37.517,3.605-57.28c-7.556-17.129-29.232-3.408-31.582,11.453
	c-1.273,8.08,2.678,15.848,2.706,22.922c0.062,16.8-10.767,39.678-13.535,56.389c-1.067,6.505-2.029,19.835-0.445,26.659
	c-0.089,0.081-0.178,0.142-0.267,0.224h11.311c7.928-13.116,13.347-32.871,17.378-49.797
	C59.116,112.43,60.042,117.164,62.035,118.622z"/>
</svg>
