<?xml version="1.0" encoding="utf-8"?>
<!-- Generator: Adobe Illustrator 17.0.2, SVG Export Plug-In . SVG Version: 6.00 Build 0)  -->
<!DOCTYPE svg PUBLIC "-//W3C//DTD SVG 1.1//EN" "http://www.w3.org/Graphics/SVG/1.1/DTD/svg11.dtd">
<svg version="1.1" id="Layer_1" xmlns="http://www.w3.org/2000/svg" xmlns:xlink="http://www.w3.org/1999/xlink" x="0px" y="0px"
	 width="217.649px" height="163.234px" viewBox="0 0 217.649 163.234" enable-background="new 0 0 217.649 163.234"
	 xml:space="preserve">
<path fill="#295A84" d="M217.649,75.286c-7.652,1.424-18.746-0.042-24.645-2.721c12.211-1.095,20.5-7.141,23.688-15.347
	c-4.399,2.934-18.089,6.165-25.634,3.093c-0.382-1.923-0.808-3.772-1.211-5.441c-5.739-23.008-25.475-41.563-46.123-39.332
	c1.658-0.724,3.348-1.403,5.048-2.02c2.265-0.893,15.622-3.284,13.508-8.374c-1.774-4.528-18.077,3.4-21.138,4.431
	C145.19,7.917,151.896,5.079,152.597,0c-6.195,0.913-12.295,4.123-16.992,8.778c1.689-2.009,2.985-4.442,3.262-7.036
	c-16.567,11.521-26.249,34.73-34.071,57.261c-6.143-6.504-11.604-11.605-16.483-14.454c-13.72-7.98-30.107-16.323-55.836-26.738
	c-0.797,9.267,4.198,21.595,18.576,29.8c-3.092-0.479-8.799,0.552-13.357,1.742c1.859,10.627,7.928,19.374,24.368,23.604
	c-7.514,0.52-11.393,2.412-14.899,6.408c3.4,7.386,11.753,16.068,26.781,14.293c-16.707,7.833-6.812,22.351,6.79,20.193
	C57.558,139.929,21,138.006,0,116.199c54.795,81.301,173.939,48.068,191.677-30.245C204.993,86.072,212.804,80.961,217.649,75.286z"
	/>
</svg>
